# Blender 5.1.1
# www.blender.org
o Cylinder.003
v 0.000000 0.000000 0.125000
v 0.000000 2.000000 0.125000
v 0.024386 0.000000 0.122598
v 0.024386 2.000000 0.122598
v 0.047835 0.000000 0.115485
v 0.047835 2.000000 0.115485
v 0.069446 0.000000 0.103934
v 0.069446 2.000000 0.103934
v 0.088388 0.000000 0.088388
v 0.088388 2.000000 0.088388
v 0.103934 0.000000 0.069446
v 0.103934 2.000000 0.069446
v 0.115485 0.000000 0.047835
v 0.115485 2.000000 0.047835
v 0.122598 0.000000 0.024386
v 0.122598 2.000000 0.024386
v 0.125000 0.000000 0.000000
v 0.125000 2.000000 -0.000000
v 0.122598 -0.000000 -0.024386
v 0.122598 2.000000 -0.024386
v 0.115485 -0.000000 -0.047835
v 0.115485 2.000000 -0.047835
v 0.103934 -0.000000 -0.069446
v 0.103934 2.000000 -0.069446
v 0.088388 -0.000000 -0.088388
v 0.088388 2.000000 -0.088388
v 0.069446 -0.000000 -0.103934
v 0.069446 2.000000 -0.103934
v 0.047835 -0.000000 -0.115485
v 0.047835 2.000000 -0.115485
v 0.024386 -0.000000 -0.122598
v 0.024386 2.000000 -0.122598
v 0.000000 -0.000000 -0.125000
v 0.000000 2.000000 -0.125000
v -0.024386 -0.000000 -0.122598
v -0.024386 2.000000 -0.122598
v -0.047835 -0.000000 -0.115485
v -0.047836 2.000000 -0.115485
v -0.069446 -0.000000 -0.103934
v -0.069446 2.000000 -0.103934
v -0.088388 -0.000000 -0.088388
v -0.088388 2.000000 -0.088388
v -0.103934 -0.000000 -0.069446
v -0.103934 2.000000 -0.069446
v -0.115485 -0.000000 -0.047835
v -0.115485 2.000000 -0.047835
v -0.122598 -0.000000 -0.024386
v -0.122598 2.000000 -0.024386
v -0.125000 0.000000 0.000000
v -0.125000 2.000000 -0.000000
v -0.122598 0.000000 0.024386
v -0.122598 2.000000 0.024386
v -0.115485 0.000000 0.047835
v -0.115485 2.000000 0.047835
v -0.103934 0.000000 0.069446
v -0.103934 2.000000 0.069446
v -0.088388 0.000000 0.088388
v -0.088388 2.000000 0.088388
v -0.069446 0.000000 0.103934
v -0.069446 2.000000 0.103934
v -0.047835 0.000000 0.115485
v -0.047836 2.000000 0.115485
v -0.024386 0.000000 0.122598
v -0.024386 2.000000 0.122598
v 0.000000 2.000000 0.250000
v 0.048772 2.000000 0.245196
v 0.095671 2.000000 0.230970
v 0.138892 2.000000 0.207867
v 0.176777 2.000000 0.176777
v 0.207867 2.000000 0.138893
v 0.230970 2.000000 0.095671
v 0.245196 2.000000 0.048773
v 0.250000 2.000000 -0.000000
v 0.245196 2.000000 -0.048773
v 0.230970 2.000000 -0.095671
v 0.207867 2.000000 -0.138893
v 0.176777 2.000000 -0.176777
v 0.138892 2.000000 -0.207867
v 0.095671 2.000000 -0.230970
v 0.048772 2.000000 -0.245196
v 0.000000 2.000000 -0.250000
v -0.048773 2.000000 -0.245196
v -0.095671 2.000000 -0.230970
v -0.138893 2.000000 -0.207867
v -0.176777 2.000000 -0.176777
v -0.207868 2.000000 -0.138893
v -0.230970 2.000000 -0.095671
v -0.245196 2.000000 -0.048773
v -0.250000 2.000000 -0.000000
v -0.245196 2.000000 0.048773
v -0.230970 2.000000 0.095671
v -0.207868 2.000000 0.138893
v -0.176777 2.000000 0.176777
v -0.138893 2.000000 0.207867
v -0.095671 2.000000 0.230970
v -0.048773 2.000000 0.245196
v 0.000000 3.000000 -0.000000
vn 0.0980 -0.0000 0.9952
vn 0.2903 -0.0000 0.9569
vn 0.4714 -0.0000 0.8819
vn 0.6344 -0.0000 0.7730
vn 0.7730 -0.0000 0.6344
vn 0.8819 -0.0000 0.4714
vn 0.9569 -0.0000 0.2903
vn 0.9952 -0.0000 0.0980
vn 0.9952 -0.0000 -0.0980
vn 0.9569 -0.0000 -0.2903
vn 0.8819 -0.0000 -0.4714
vn 0.7730 -0.0000 -0.6344
vn 0.6344 -0.0000 -0.7730
vn 0.4714 -0.0000 -0.8819
vn 0.2903 -0.0000 -0.9569
vn 0.0980 -0.0000 -0.9952
vn -0.0980 -0.0000 -0.9952
vn -0.2903 -0.0000 -0.9569
vn -0.4714 -0.0000 -0.8819
vn -0.6344 -0.0000 -0.7730
vn -0.7730 -0.0000 -0.6344
vn -0.8819 -0.0000 -0.4714
vn -0.9569 -0.0000 -0.2903
vn -0.9952 -0.0000 -0.0980
vn -0.9952 -0.0000 0.0980
vn -0.9569 -0.0000 0.2903
vn -0.8819 -0.0000 0.4714
vn -0.7730 -0.0000 0.6344
vn -0.6344 -0.0000 0.7730
vn -0.4714 -0.0000 0.8819
vn -0.0000 1.0000 -0.0000
vn -0.2903 -0.0000 0.9569
vn -0.0980 -0.0000 0.9952
vn -0.0000 -1.0000 -0.0000
vn 0.0951 0.2414 0.9657
vn 0.2817 0.2414 0.9286
vn 0.4575 0.2414 0.8558
vn 0.6156 0.2414 0.7502
vn 0.7501 0.2414 0.6156
vn 0.8558 0.2414 0.4575
vn 0.9286 0.2414 0.2817
vn 0.9657 0.2414 0.0951
vn 0.9657 0.2414 -0.0951
vn 0.9286 0.2414 -0.2817
vn 0.8558 0.2414 -0.4575
vn 0.7501 0.2414 -0.6156
vn 0.6156 0.2414 -0.7502
vn 0.4575 0.2414 -0.8558
vn 0.2817 0.2414 -0.9286
vn 0.0951 0.2414 -0.9657
vn -0.0951 0.2414 -0.9657
vn -0.2817 0.2414 -0.9286
vn -0.4575 0.2414 -0.8558
vn -0.6156 0.2414 -0.7501
vn -0.7501 0.2414 -0.6156
vn -0.8558 0.2414 -0.4574
vn -0.9286 0.2414 -0.2817
vn -0.9657 0.2414 -0.0951
vn -0.9657 0.2414 0.0951
vn -0.9286 0.2414 0.2817
vn -0.8558 0.2414 0.4574
vn -0.7501 0.2414 0.6156
vn -0.6156 0.2414 0.7501
vn -0.4575 0.2414 0.8558
vn -0.2817 0.2414 0.9286
vn -0.0951 0.2414 0.9657
vt 0.666667 1.000000
vt 0.666667 0.500000
vt 0.656250 0.500000
vt 0.656250 1.000000
vt 0.645833 0.500000
vt 0.645833 1.000000
vt 0.635417 0.500000
vt 0.635417 1.000000
vt 0.625000 0.500000
vt 0.625000 1.000000
vt 0.614583 0.500000
vt 0.614583 1.000000
vt 0.604167 0.500000
vt 0.604167 1.000000
vt 0.593750 0.500000
vt 0.593750 1.000000
vt 0.583333 0.500000
vt 0.583333 1.000000
vt 0.572917 0.500000
vt 0.572917 1.000000
vt 0.562500 0.500000
vt 0.552083 0.500000
vt 0.552083 1.000000
vt 0.541667 0.500000
vt 0.541667 1.000000
vt 0.531250 0.500000
vt 0.531250 1.000000
vt 0.520833 0.500000
vt 0.520833 1.000000
vt 0.510417 0.500000
vt 0.510417 1.000000
vt 0.500000 0.500000
vt 0.500000 1.000000
vt 0.489583 0.500000
vt 0.489583 1.000000
vt 0.479167 0.500000
vt 0.479167 1.000000
vt 0.468750 0.500000
vt 0.468750 1.000000
vt 0.458333 0.500000
vt 0.458333 1.000000
vt 0.447917 0.500000
vt 0.447917 1.000000
vt 0.437500 0.500000
vt 0.437500 1.000000
vt 0.427083 0.500000
vt 0.416667 0.500000
vt 0.416667 1.000000
vt 0.406250 0.500000
vt 0.406250 1.000000
vt 0.395833 0.500000
vt 0.395833 1.000000
vt 0.385417 0.500000
vt 0.385417 1.000000
vt 0.375000 0.500000
vt 0.375000 1.000000
vt 0.364583 0.500000
vt 0.364583 1.000000
vt 0.354167 0.500000
vt 0.342756 0.341844
vt 0.490577 0.158156
vt 0.386052 0.028269
vt 0.354167 1.000000
vt 0.343750 0.500000
vt 0.343750 1.000000
vt 0.333333 0.500000
vt 0.598941 0.014612
vt 0.567726 0.485388
vt 0.504871 0.203178
vt 0.416667 0.490000
vt 0.432274 0.485388
vt 0.416667 0.250000
vt 0.447281 0.471731
vt 0.461112 0.449553
vt 0.473235 0.419706
vt 0.483184 0.383337
vt 0.490577 0.341844
vt 0.495129 0.296822
vt 0.496667 0.250000
vt 0.495129 0.203178
vt 0.483184 0.116663
vt 0.473235 0.080294
vt 0.461112 0.050447
vt 0.447281 0.028269
vt 0.432274 0.014612
vt 0.416667 0.010000
vt 0.401059 0.014612
vt 0.372221 0.050447
vt 0.360098 0.080294
vt 0.350149 0.116663
vt 0.342756 0.158156
vt 0.338204 0.203178
vt 0.336667 0.250000
vt 0.338204 0.296822
vt 0.350149 0.383337
vt 0.360098 0.419706
vt 0.372221 0.449553
vt 0.386052 0.471731
vt 0.401059 0.485388
vt 0.562500 1.000000
vt 0.427083 1.000000
vt 0.333333 1.000000
vt 0.598941 0.485388
vt 0.583333 0.490000
vt 0.613948 0.471731
vt 0.627779 0.449553
vt 0.661796 0.296822
vt 0.639902 0.419706
vt 0.649851 0.383337
vt 0.657244 0.341844
vt 0.661796 0.203178
vt 0.663333 0.250000
vt 0.657244 0.158156
vt 0.649851 0.116663
vt 0.639902 0.080294
vt 0.627779 0.050447
vt 0.613948 0.028269
vt 0.567726 0.014612
vt 0.583333 0.010000
vt 0.552719 0.028269
vt 0.538888 0.050447
vt 0.516816 0.116663
vt 0.526765 0.080294
vt 0.509423 0.158156
vt 0.504871 0.296822
vt 0.503333 0.250000
vt 0.509423 0.341844
vt 0.516816 0.383337
vt 0.538888 0.449553
vt 0.526765 0.419706
vt 0.552719 0.471731
s 1
f 2/1/1 1/2/1 3/3/1
f 4/4/2 3/3/2 5/5/2
f 6/6/3 5/5/3 7/7/3
f 8/8/4 7/7/4 9/9/4
f 10/10/5 9/9/5 11/11/5
f 12/12/6 11/11/6 13/13/6
f 14/14/7 13/13/7 15/15/7
f 16/16/8 15/15/8 17/17/8
f 18/18/9 17/17/9 19/19/9
f 20/20/10 19/19/10 21/21/10
f 21/21/11 23/22/11 24/23/11
f 23/22/12 25/24/12 26/25/12
f 25/24/13 27/26/13 28/27/13
f 27/26/14 29/28/14 30/29/14
f 29/28/15 31/30/15 32/31/15
f 31/30/16 33/32/16 34/33/16
f 33/32/17 35/34/17 36/35/17
f 35/34/18 37/36/18 38/37/18
f 37/36/19 39/38/19 40/39/19
f 39/38/20 41/40/20 42/41/20
f 41/40/21 43/42/21 44/43/21
f 43/42/22 45/44/22 46/45/22
f 46/45/23 45/44/23 47/46/23
f 47/46/24 49/47/24 50/48/24
f 50/48/25 49/47/25 51/49/25
f 52/50/26 51/49/26 53/51/26
f 54/52/27 53/51/27 55/53/27
f 56/54/28 55/53/28 57/55/28
f 58/56/29 57/55/29 59/57/29
f 60/58/30 59/57/30 61/59/30
f 54/60/31 22/61/31 38/62/31
f 62/63/32 61/59/32 63/64/32
f 64/65/33 63/64/33 1/66/33
f 31/67/34 63/68/34 47/69/34
f 65/70/35 66/71/35 97/72/35
f 66/71/36 67/73/36 97/72/36
f 67/73/37 68/74/37 97/72/37
f 68/74/38 69/75/38 97/72/38
f 69/75/39 70/76/39 97/72/39
f 70/76/40 71/77/40 97/72/40
f 71/77/41 72/78/41 97/72/41
f 72/78/42 73/79/42 97/72/42
f 73/79/43 74/80/43 97/72/43
f 74/80/44 75/61/44 97/72/44
f 75/61/45 76/81/45 97/72/45
f 76/81/46 77/82/46 97/72/46
f 77/82/47 78/83/47 97/72/47
f 78/83/48 79/84/48 97/72/48
f 79/84/49 80/85/49 97/72/49
f 80/85/50 81/86/50 97/72/50
f 81/86/51 82/87/51 97/72/51
f 82/87/52 83/62/52 97/72/52
f 83/62/53 84/88/53 97/72/53
f 84/88/54 85/89/54 97/72/54
f 85/89/55 86/90/55 97/72/55
f 86/90/56 87/91/56 97/72/56
f 87/91/57 88/92/57 97/72/57
f 88/92/58 89/93/58 97/72/58
f 89/93/59 90/94/59 97/72/59
f 90/94/60 91/60/60 97/72/60
f 91/60/61 92/95/61 97/72/61
f 92/95/62 93/96/62 97/72/62
f 93/96/63 94/97/63 97/72/63
f 94/97/64 95/98/64 97/72/64
f 80/67/34 96/68/34 88/69/34
f 95/98/65 96/99/65 97/72/65
f 96/99/66 65/70/66 97/72/66
f 2/1/1 3/3/1 4/4/1
f 4/4/2 5/5/2 6/6/2
f 6/6/3 7/7/3 8/8/3
f 8/8/4 9/9/4 10/10/4
f 10/10/5 11/11/5 12/12/5
f 12/12/6 13/13/6 14/14/6
f 14/14/7 15/15/7 16/16/7
f 16/16/8 17/17/8 18/18/8
f 18/18/9 19/19/9 20/20/9
f 20/20/10 21/21/10 22/100/10
f 21/21/11 24/23/11 22/100/11
f 23/22/12 26/25/12 24/23/12
f 25/24/13 28/27/13 26/25/13
f 27/26/14 30/29/14 28/27/14
f 29/28/15 32/31/15 30/29/15
f 31/30/16 34/33/16 32/31/16
f 33/32/17 36/35/17 34/33/17
f 35/34/18 38/37/18 36/35/18
f 37/36/19 40/39/19 38/37/19
f 39/38/20 42/41/20 40/39/20
f 41/40/21 44/43/21 42/41/21
f 43/42/22 46/45/22 44/43/22
f 46/45/23 47/46/23 48/101/23
f 47/46/24 50/48/24 48/101/24
f 50/48/25 51/49/25 52/50/25
f 52/50/26 53/51/26 54/52/26
f 54/52/27 55/53/27 56/54/27
f 56/54/28 57/55/28 58/56/28
f 58/56/29 59/57/29 60/58/29
f 60/58/30 61/59/30 62/63/30
f 6/73/31 2/70/31 4/71/31
f 2/70/31 62/98/31 64/99/31
f 62/98/31 58/96/31 60/97/31
f 58/96/31 62/98/31 56/95/31
f 56/95/31 62/98/31 54/60/31
f 54/60/31 46/91/31 52/94/31
f 52/94/31 46/91/31 50/93/31
f 50/93/31 46/91/31 48/92/31
f 46/91/31 42/89/31 44/90/31
f 42/89/31 46/91/31 40/88/31
f 40/88/31 46/91/31 38/62/31
f 38/62/31 30/84/31 36/87/31
f 36/87/31 30/84/31 34/86/31
f 34/86/31 30/84/31 32/85/31
f 30/84/31 26/82/31 28/83/31
f 26/82/31 22/61/31 24/81/31
f 22/61/31 18/79/31 20/80/31
f 18/79/31 22/61/31 16/78/31
f 16/78/31 22/61/31 14/77/31
f 14/77/31 10/75/31 12/76/31
f 10/75/31 6/73/31 8/74/31
f 6/73/31 54/60/31 2/70/31
f 2/70/31 54/60/31 62/98/31
f 30/84/31 38/62/31 26/82/31
f 26/82/31 38/62/31 22/61/31
f 14/77/31 6/73/31 10/75/31
f 54/60/31 38/62/31 46/91/31
f 22/61/31 6/73/31 14/77/31
f 6/73/31 22/61/31 54/60/31
f 62/63/32 63/64/32 64/65/32
f 64/65/33 1/66/33 2/102/33
f 63/68/34 3/103/34 1/104/34
f 3/103/34 63/68/34 5/105/34
f 5/105/34 63/68/34 7/106/34
f 7/106/34 15/107/34 9/108/34
f 9/108/34 15/107/34 11/109/34
f 11/109/34 15/107/34 13/110/34
f 15/107/34 19/111/34 17/112/34
f 19/111/34 15/107/34 21/113/34
f 21/113/34 15/107/34 23/114/34
f 23/114/34 31/67/34 25/115/34
f 25/115/34 31/67/34 27/116/34
f 27/116/34 31/67/34 29/117/34
f 31/67/34 35/118/34 33/119/34
f 35/118/34 31/67/34 37/120/34
f 37/120/34 31/67/34 39/121/34
f 39/121/34 43/122/34 41/123/34
f 43/122/34 39/121/34 45/124/34
f 45/124/34 39/121/34 47/69/34
f 47/69/34 51/125/34 49/126/34
f 51/125/34 47/69/34 53/127/34
f 53/127/34 47/69/34 55/128/34
f 55/128/34 59/129/34 57/130/34
f 59/129/34 55/128/34 61/131/34
f 61/131/34 55/128/34 63/68/34
f 63/68/34 15/107/34 7/106/34
f 15/107/34 31/67/34 23/114/34
f 31/67/34 47/69/34 39/121/34
f 47/69/34 63/68/34 55/128/34
f 63/68/34 31/67/34 15/107/34
f 96/68/34 66/103/34 65/104/34
f 66/103/34 68/106/34 67/105/34
f 68/106/34 70/109/34 69/108/34
f 70/109/34 68/106/34 71/110/34
f 71/110/34 68/106/34 72/107/34
f 72/107/34 74/111/34 73/112/34
f 74/111/34 76/114/34 75/113/34
f 76/114/34 80/67/34 77/115/34
f 77/115/34 80/67/34 78/116/34
f 78/116/34 80/67/34 79/117/34
f 80/67/34 82/118/34 81/119/34
f 82/118/34 84/121/34 83/120/34
f 84/121/34 86/122/34 85/123/34
f 86/122/34 84/121/34 87/124/34
f 87/124/34 84/121/34 88/69/34
f 88/69/34 90/125/34 89/126/34
f 90/125/34 88/69/34 91/127/34
f 91/127/34 88/69/34 92/128/34
f 92/128/34 94/129/34 93/130/34
f 94/129/34 92/128/34 95/131/34
f 95/131/34 92/128/34 96/68/34
f 96/68/34 68/106/34 66/103/34
f 72/107/34 76/114/34 74/111/34
f 80/67/34 84/121/34 82/118/34
f 96/68/34 72/107/34 68/106/34
f 72/107/34 80/67/34 76/114/34
f 80/67/34 88/69/34 84/121/34
f 88/69/34 96/68/34 92/128/34
f 96/68/34 80/67/34 72/107/34
